<svg width="24" height="24" fill="none" xmlns="http://www.w3.org/2000/svg"><path d="M19.5 3.743h-15a.75.75 0 0 0-.75.75v15c0 .414.336.75.75.75h15a.75.75 0 0 0 .75-.75v-15a.75.75 0 0 0-.75-.75ZM16.5 2.243v3M7.5 2.243v3M3.75 8.243h16.5" stroke="#195A00" stroke-width="1.5" stroke-linecap="round" stroke-linejoin="round"/><path d="M8.625 11.993h2.625l-1.5 1.875a1.5 1.5 0 1 1-1.06 2.56M13.5 13.118l1.5-1.125v4.875" stroke="#195A00" stroke-width="1.5" stroke-linecap="round" stroke-linejoin="round"/></svg>