<svg width="55" height="52" fill="none" xmlns="http://www.w3.org/2000/svg"><path d="M10.485 19.756c-.257 0-.51-.053-.741-.154a1.702 1.702 0 0 1-.595-.432 1.52 1.52 0 0 1-.334-.623 1.438 1.438 0 0 1-.006-.695C10.184 11.807 18.026 7.195 27.5 7.195c9.475 0 17.317 4.612 18.692 10.657.054.23.052.466-.007.695a1.52 1.52 0 0 1-.334.623c-.16.183-.364.33-.595.431a1.855 1.855 0 0 1-.74.155H10.485ZM44.688 33.888v3.14c0 1.666-.725 3.263-2.014 4.441-1.29 1.178-3.038 1.84-4.861 1.84H17.186c-1.823 0-3.572-.662-4.86-1.84-1.29-1.178-2.014-2.775-2.014-4.441v-3.14" stroke="#333" stroke-width="2" stroke-linecap="round" stroke-linejoin="round"/><path d="m6.016 35.458 8.593-3.14 8.594 3.14 8.594-3.14 8.594 3.14 8.593-3.14M5.156 26.037h44.688" stroke="#333" stroke-width="2" stroke-linecap="round" stroke-linejoin="round"/></svg>