<svg width="21" height="20" fill="none" xmlns="http://www.w3.org/2000/svg"><g clip-path="url('#clip0_319_4066')" fill-rule="evenodd" clip-rule="evenodd" fill="#8C8C8C"><path d="M4.43 8.379a6.25 6.25 0 0 1 8.879-3.95.625.625 0 1 0 .567-1.115 7.5 7.5 0 1 0 3.41 3.557.625.625 0 1 0-1.138.522 6.25 6.25 0 1 1-11.717.986Z"/><path d="M10.651.18a.625.625 0 0 1 .884 0l3.125 3.124a.625.625 0 0 1 0 .885l-3.125 3.125a.625.625 0 1 1-.884-.885l2.683-2.682-2.683-2.682a.625.625 0 0 1 0-.885Z"/></g><defs><clipPath id="clip0_319_4066"><path fill="#fff" transform="translate(.469 -.002)" d="M0 0h19.998v19.998H0z"/></clipPath></defs></svg>