<svg width="26" height="26" fill="none" xmlns="http://www.w3.org/2000/svg"><path fill-rule="evenodd" clip-rule="evenodd" d="M8.242 3.07a.781.781 0 0 1 1.106 0l9.374 9.374a.781.781 0 0 1 0 1.106l-9.374 9.374a.782.782 0 1 1-1.106-1.106l8.823-8.82-8.823-8.822a.781.781 0 0 1 0-1.106Z" fill="#000" fill-opacity=".1"/><path d="M8.27 3.098a.742.742 0 0 1 1.05 0l9.375 9.374a.741.741 0 0 1 0 1.05L9.32 22.898a.743.743 0 1 1-1.051-1.051l8.822-8.821.028-.028-.028-.027L8.27 4.149a.742.742 0 0 1 0-1.051Z" stroke="#000" stroke-opacity=".1" stroke-width=".078"/></svg>