<svg width="25" height="26" fill="none" xmlns="http://www.w3.org/2000/svg"><path fill-rule="evenodd" clip-rule="evenodd" d="M7.27 7.3a.781.781 0 0 0 1.105 0l4.134-4.135 4.134 4.136a.782.782 0 0 0 1.106-1.107l-4.687-4.687a.78.78 0 0 0-1.106 0L7.27 6.194a.781.781 0 0 0 0 1.107Z" fill="#8C8C8C"/><path fill-rule="evenodd" clip-rule="evenodd" d="M12.51 18.465a.781.781 0 0 0 .78-.781V3.623a.781.781 0 1 0-1.562 0v14.06a.781.781 0 0 0 .781.782Z" fill="#8C8C8C"/><path fill-rule="evenodd" clip-rule="evenodd" d="M3.916 22.37a2.344 2.344 0 0 0 2.344 2.344h12.498a2.344 2.344 0 0 0 2.344-2.343V11.434a2.343 2.343 0 0 0-2.344-2.343h-2.343a.781.781 0 1 0 0 1.562h2.343a.781.781 0 0 1 .782.781v10.937a.782.782 0 0 1-.782.78H6.26a.781.781 0 0 1-.782-.78V11.434a.781.781 0 0 1 .782-.78h2.343a.781.781 0 1 0 0-1.563H6.26a2.344 2.344 0 0 0-2.344 2.343v10.937Z" fill="#8C8C8C"/></svg>