<svg width="116" height="20" fill="none" xmlns="http://www.w3.org/2000/svg"><path d="m10.344 14.891 3.937 2.5c.508.32 1.133-.156.985-.742l-1.14-4.484a.68.68 0 0 1 .226-.688l3.53-2.945c.462-.383.227-1.156-.374-1.195l-4.61-.297a.648.648 0 0 1-.57-.422L10.61 2.29a.649.649 0 0 0-1.22 0L7.673 6.618a.648.648 0 0 1-.57.422l-4.61.297c-.601.039-.836.812-.375 1.195l3.532 2.945a.68.68 0 0 1 .226.688L4.82 16.32c-.18.703.57 1.273 1.172.89l3.664-2.32a.64.64 0 0 1 .688 0ZM34.344 14.891l3.937 2.5c.508.32 1.133-.156.985-.742l-1.14-4.484a.68.68 0 0 1 .226-.688l3.53-2.945c.462-.383.227-1.156-.374-1.195l-4.61-.297a.648.648 0 0 1-.57-.422L34.61 2.29a.649.649 0 0 0-1.218 0l-1.719 4.328a.648.648 0 0 1-.57.422l-4.61.297c-.601.039-.836.812-.375 1.195l3.532 2.945a.68.68 0 0 1 .226.688L28.82 16.32c-.18.703.57 1.273 1.172.89l3.664-2.32a.64.64 0 0 1 .688 0ZM58.344 14.891l3.937 2.5c.508.32 1.133-.156.985-.742l-1.14-4.484a.68.68 0 0 1 .226-.688l3.53-2.945c.462-.383.227-1.156-.374-1.195l-4.61-.297a.648.648 0 0 1-.57-.422L58.61 2.29a.649.649 0 0 0-1.218 0l-1.719 4.328a.648.648 0 0 1-.57.422l-4.61.297c-.601.039-.836.812-.375 1.195l3.532 2.945a.68.68 0 0 1 .226.688L52.82 16.32c-.18.703.57 1.273 1.172.89l3.664-2.32a.64.64 0 0 1 .688 0ZM82.344 14.891l3.937 2.5c.508.32 1.133-.156.985-.742l-1.14-4.484a.68.68 0 0 1 .226-.688l3.53-2.945c.462-.383.227-1.156-.374-1.195l-4.61-.297a.648.648 0 0 1-.57-.422L82.61 2.29a.649.649 0 0 0-1.218 0l-1.719 4.328a.648.648 0 0 1-.57.422l-4.61.297c-.601.039-.836.812-.375 1.195l3.532 2.945a.68.68 0 0 1 .226.688L76.82 16.32c-.18.703.57 1.273 1.172.89l3.664-2.32a.64.64 0 0 1 .688 0ZM106.344 14.891l3.937 2.5c.508.32 1.133-.156.985-.742l-1.141-4.484a.679.679 0 0 1 .227-.688l3.531-2.945c.461-.383.226-1.156-.375-1.195l-4.609-.297a.647.647 0 0 1-.571-.422l-1.719-4.328a.645.645 0 0 0-.609-.427.649.649 0 0 0-.609.427l-1.719 4.328a.651.651 0 0 1-.57.422l-4.61.297c-.601.039-.836.812-.375 1.195l3.532 2.945a.684.684 0 0 1 .226.688l-1.055 4.156c-.179.703.571 1.273 1.172.89l3.664-2.32a.641.641 0 0 1 .688 0Z" fill="#195A00"/></svg>