<svg width="29" height="30" fill="none" xmlns="http://www.w3.org/2000/svg"><path d="M23.331 24.584H5.538a.865.865 0 0 1-.587-.232.92.92 0 0 1-.288-.577L3.098 9.229a.937.937 0 0 1 .219-.707.857.857 0 0 1 .656-.303h20.924a.857.857 0 0 1 .656.303.916.916 0 0 1 .219.707l-1.566 14.546a.919.919 0 0 1-.287.577.865.865 0 0 1-.588.232Z" stroke="#000" stroke-width="1.761" stroke-linecap="round" stroke-linejoin="round"/><path d="M10.032 11.856V8.219c0-1.206.464-2.362 1.29-3.214a4.333 4.333 0 0 1 3.112-1.332c1.168 0 2.288.48 3.113 1.332a4.622 4.622 0 0 1 1.29 3.214v3.637" stroke="red" stroke-width="1.761" stroke-linecap="round" stroke-linejoin="round"/></svg>