<svg width="56" height="50" fill="none" xmlns="http://www.w3.org/2000/svg"><path d="M38.5 15.96h9.319c.348-.003.69.087.978.257.29.17.513.412.64.694l3.063 6.66M3.5 28.138h35" stroke="#333" stroke-width="2" stroke-linecap="round" stroke-linejoin="round"/><path d="M41.125 41.839c2.9 0 5.25-2.045 5.25-4.567 0-2.522-2.35-4.567-5.25-4.567s-5.25 2.045-5.25 4.567c0 2.522 2.35 4.567 5.25 4.567ZM14.875 41.839c2.9 0 5.25-2.045 5.25-4.567 0-2.522-2.35-4.567-5.25-4.567s-5.25 2.045-5.25 4.567c0 2.522 2.35 4.567 5.25 4.567Z" stroke="#333" stroke-width="2" stroke-miterlimit="10"/><path d="M35.875 37.272h-15.75M9.625 37.272H5.25c-.464 0-.91-.16-1.237-.446a1.43 1.43 0 0 1-.513-1.077V14.437c0-.404.184-.791.513-1.077a1.891 1.891 0 0 1 1.237-.445H38.5v20.399M38.5 23.57h14v12.18c0 .403-.184.79-.513 1.076a1.891 1.891 0 0 1-1.237.446h-4.375" stroke="#333" stroke-width="2" stroke-linecap="round" stroke-linejoin="round"/></svg>