<svg width="53" height="32" fill="none" xmlns="http://www.w3.org/2000/svg"><path d="M42.944 23.35c-1.26 0-2.459.446-3.362 1.253-.904.817-1.408 1.881-1.408 3.021s.493 2.204 1.408 3.021a5.055 5.055 0 0 0 3.362 1.254c2.585 0 4.686-1.919 4.686-4.275 0-2.356-2.101-4.275-4.686-4.275Zm0 6.65c-1.45 0-2.669-1.084-2.669-2.376 0-1.292 1.219-2.375 2.67-2.375 1.428 0 2.584 1.064 2.584 2.375S44.373 30 42.944 30Zm1.219-20.892a1.083 1.083 0 0 0-.704-.247h-5.39c-.578 0-1.051.428-1.051.95v7.79c0 .523.473.95 1.05.95h8.554c.578 0 1.05-.427 1.05-.95v-5.215a.913.913 0 0 0-.346-.703l-3.163-2.575Zm1.408 7.543h-6.452v-5.9h3.93l2.522 2.053v3.847ZM17.284 23.35c-1.26 0-2.458.447-3.362 1.254-.904.817-1.408 1.881-1.408 3.021s.494 2.204 1.408 3.021a5.055 5.055 0 0 0 3.362 1.254c2.585 0 4.687-1.919 4.687-4.275 0-2.356-2.102-4.275-4.687-4.275Zm0 6.65c-1.45 0-2.669-1.083-2.669-2.375s1.22-2.375 2.67-2.375c1.428 0 2.584 1.064 2.584 2.375S18.713 30 17.284 30Zm-7.008-5.481H8.164V21.99c0-.523-.473-.95-1.051-.95s-1.05.427-1.05.95v3.477c0 .522.472.95 1.05.95h3.163c.578 0 1.05-.428 1.05-.95 0-.523-.472-.95-1.05-.95Zm5.327-5.178c0-.523-.473-.95-1.05-.95H1.806c-.578 0-1.051.427-1.051.95 0 .523.473.95 1.05.95h12.746c.578 0 1.051-.418 1.051-.95ZM3.94 15.91l12.746.067c.577 0 1.05-.418 1.06-.94.011-.533-.462-.96-1.04-.96L3.961 14.01h-.01c-.579 0-1.052.418-1.052.94-.01.533.463.96 1.04.96Zm2.143-4.313H18.83c.578 0 1.05-.427 1.05-.95 0-.522-.472-.95-1.05-.95H6.083c-.578 0-1.05.428-1.05.95 0 .523.472.95 1.05.95Zm45.887-1.282L44.447 4.68a1.104 1.104 0 0 0-.673-.218h-8.847v-3.42c0-.523-.473-.95-1.051-.95H7.113c-.578 0-1.05.427-1.05.95v6.954c0 .522.472.95 1.05.95.578 0 1.05-.428 1.05-.95V1.993h24.673v22.525h-8.617c-.578 0-1.05.427-1.05.95 0 .522.473.95 1.05.95h12.83c.578 0 1.051-.428 1.051-.95 0-.523-.473-.95-1.05-.95h-2.113V6.363h8.47l6.85 5.13-.073 13.006H49.09c-.578 0-1.05.427-1.05.95 0 .522.472.95 1.05.95h2.133c.578 0 1.05-.418 1.05-.94l.085-14.403a.969.969 0 0 0-.389-.741Z" fill="#4F4F4F"/></svg>