<svg width="53" height="33" fill="none" xmlns="http://www.w3.org/2000/svg"><path d="M42.944 23.69a4.998 4.998 0 0 0-3.362 1.27c-.904.828-1.408 1.906-1.408 3.06 0 1.156.493 2.233 1.408 3.061a5.017 5.017 0 0 0 3.362 1.27c2.585 0 4.686-1.944 4.686-4.33 0-2.387-2.101-4.33-4.686-4.33Zm0 6.737c-1.45 0-2.669-1.097-2.669-2.406 0-1.309 1.219-2.406 2.67-2.406 1.428 0 2.584 1.078 2.584 2.406s-1.156 2.406-2.585 2.406Zm1.219-21.163a1.074 1.074 0 0 0-.704-.25h-5.39c-.578 0-1.051.433-1.051.963v7.89c0 .53.473.963 1.05.963h8.554c.578 0 1.05-.433 1.05-.962v-5.283a.93.93 0 0 0-.346-.713l-3.163-2.608Zm1.408 7.642h-6.452v-5.977h3.93l2.522 2.079v3.898ZM17.284 23.69c-1.26 0-2.458.452-3.362 1.27-.904.828-1.408 1.906-1.408 3.06 0 1.156.494 2.233 1.408 3.061a5.017 5.017 0 0 0 3.362 1.27c2.585 0 4.687-1.944 4.687-4.33 0-2.387-2.102-4.33-4.687-4.33Zm0 6.737c-1.45 0-2.669-1.097-2.669-2.406 0-1.309 1.22-2.406 2.67-2.406 1.428 0 2.584 1.078 2.584 2.406s-1.156 2.406-2.585 2.406Zm-7.008-5.553H8.164v-2.56c0-.53-.473-.962-1.051-.962s-1.05.433-1.05.962v3.522c0 .53.472.963 1.05.963h3.163c.578 0 1.05-.433 1.05-.963 0-.529-.472-.962-1.05-.962Zm5.327-5.245c0-.53-.473-.962-1.05-.962H1.806c-.578 0-1.051.433-1.051.962 0 .53.473.962 1.05.962h12.746c.578 0 1.051-.423 1.051-.962ZM3.94 16.155l12.746.067c.577 0 1.05-.423 1.06-.953.011-.538-.462-.971-1.04-.971L3.961 14.23h-.01c-.579 0-1.052.424-1.052.953-.01.539.463.972 1.04.972Zm2.143-4.37H18.83c.578 0 1.05-.432 1.05-.962 0-.529-.472-.962-1.05-.962H6.083c-.578 0-1.05.433-1.05.962 0 .53.472.963 1.05.963Zm45.887-1.298L44.447 4.78a1.095 1.095 0 0 0-.673-.222h-8.847V1.094c0-.53-.473-.962-1.051-.962H7.113c-.578 0-1.05.433-1.05.962v7.044c0 .53.472.963 1.05.963.578 0 1.05-.433 1.05-.963V2.056h24.673v22.818h-8.617c-.578 0-1.05.433-1.05.962 0 .53.473.963 1.05.963h12.83c.578 0 1.051-.433 1.051-.963 0-.529-.473-.962-1.05-.962h-2.113V6.484h8.47l6.85 5.196-.073 13.175H49.09c-.578 0-1.05.433-1.05.962 0 .53.472.962 1.05.962h2.133c.578 0 1.05-.423 1.05-.952l.085-14.59a.985.985 0 0 0-.389-.75Z" fill="#4F4F4F"/></svg>