<svg width="53" height="32" fill="none" xmlns="http://www.w3.org/2000/svg"><path d="M42.944 23.012c-1.26 0-2.459.435-3.362 1.222-.904.796-1.408 1.832-1.408 2.943s.493 2.148 1.408 2.944a5.133 5.133 0 0 0 3.362 1.222c2.585 0 4.686-1.87 4.686-4.166 0-2.295-2.101-4.165-4.686-4.165Zm0 6.48c-1.45 0-2.669-1.056-2.669-2.315s1.219-2.314 2.67-2.314c1.428 0 2.584 1.037 2.584 2.314 0 1.278-1.156 2.314-2.585 2.314Zm1.219-20.356a1.1 1.1 0 0 0-.704-.24h-5.39c-.578 0-1.051.416-1.051.925v7.59c0 .51.473.926 1.05.926h8.554c.578 0 1.05-.416 1.05-.925V12.33c0-.26-.126-.51-.346-.685l-3.163-2.509Zm1.408 7.35h-6.452v-5.748h3.93l2.522 1.999v3.749Zm-28.287 6.526c-1.26 0-2.458.435-3.362 1.222-.904.796-1.408 1.832-1.408 2.943s.494 2.148 1.408 2.944a5.133 5.133 0 0 0 3.362 1.222c2.585 0 4.687-1.87 4.687-4.166 0-2.295-2.102-4.165-4.687-4.165Zm0 6.48c-1.45 0-2.669-1.056-2.669-2.315s1.22-2.314 2.67-2.314c1.428 0 2.584 1.037 2.584 2.314 0 1.278-1.156 2.314-2.585 2.314Zm-7.008-5.342H8.164v-2.462c0-.51-.473-.926-1.051-.926s-1.05.417-1.05.926v3.388c0 .51.472.926 1.05.926h3.163c.578 0 1.05-.417 1.05-.926 0-.51-.472-.926-1.05-.926Zm5.327-5.044c0-.51-.473-.926-1.05-.926H1.806c-.578 0-1.051.416-1.051.925 0 .51.473.926 1.05.926h12.746c.578 0 1.051-.407 1.051-.925ZM3.94 15.763l12.746.065c.577 0 1.05-.408 1.06-.917.011-.518-.462-.935-1.04-.935l-12.745-.065h-.01c-.579 0-1.052.408-1.052.917-.01.518.463.935 1.04.935Zm2.143-4.203H18.83c.578 0 1.05-.416 1.05-.925 0-.51-.472-.926-1.05-.926H6.083c-.578 0-1.05.416-1.05.926 0 .509.472.925 1.05.925Zm45.887-1.25-7.523-5.489a1.124 1.124 0 0 0-.673-.212h-8.847V1.277c0-.509-.473-.925-1.051-.925H7.113c-.578 0-1.05.416-1.05.925v6.776c0 .51.472.926 1.05.926.578 0 1.05-.417 1.05-.926v-5.85h24.673V24.15h-8.617c-.578 0-1.05.417-1.05.926 0 .51.473.926 1.05.926h12.83c.578 0 1.051-.417 1.051-.926 0-.51-.473-.926-1.05-.926h-2.113V6.46h8.47l6.85 5-.073 12.672H49.09c-.578 0-1.05.416-1.05.925 0 .51.472.926 1.05.926h2.133c.578 0 1.05-.407 1.05-.916l.085-14.033a.937.937 0 0 0-.389-.722Z" fill="#4F4F4F"/></svg>